<svg xmlns="http://www.w3.org/2000/svg" width="21.375" height="14.09" viewBox="0 0 21.375 14.09">
  <defs>
    <style>
      .cls-1 {
        fill: #fff;
        fill-rule: evenodd;
        opacity: 0.78;
      }
    </style>
  </defs>
  <path id="Rectangle_18_copy_6" data-name="Rectangle 18 copy 6" class="cls-1" d="M355,4004h21v1H355v-1Zm0,1h21v1H355v-1Zm13.949-7.09,7.438,6.69-0.668.74-7.438-6.68Zm-0.668.75,7.438,6.68-0.669.74-7.438-6.68Zm6.348,5.34L367,4010.54l0.685,0.73,7.629-6.54Zm0.685,0.73-7.629,6.54,0.686,0.73,7.629-6.55ZM355,4004h21v1H355v-1Zm0,1h21v1H355v-1Zm13.949-7.09,7.438,6.69-0.668.74-7.438-6.68Zm-0.668.75,7.438,6.68-0.669.74-7.438-6.68Zm6.348,5.34L367,4010.54l0.685,0.73,7.629-6.54Zm0.685,0.73-7.629,6.54,0.686,0.73,7.629-6.55Z" transform="translate(-355 -3997.91)"/>
</svg>
