<svg id="Star" xmlns="http://www.w3.org/2000/svg" width="104" height="14" viewBox="0 0 104 14">
  <defs>
    <style>
      .cls-1 {
        fill: #f2da3b;
        fill-rule: evenodd;
      }
    </style>
  </defs>
  <path class="cls-1" d="M7.682,0l2.532,4.4,5.15,0.949L11.779,9.014,12.43,14,7.682,11.867,2.934,14,3.585,9.014,0,5.348,5.15,4.4,7.682,0"/>
  <path id="Shape_2_copy" data-name="Shape 2 copy" class="cls-1" d="M30.136,0l2.532,4.4,5.15,0.949L34.233,9.014,34.884,14l-4.748-2.133L25.389,14l0.651-4.986L22.455,5.348,27.6,4.4,30.136,0"/>
  <path id="Shape_2_copy_2" data-name="Shape 2 copy 2" class="cls-1" d="M52.591,0l2.532,4.4,5.15,0.949L56.688,9.014,57.339,14l-4.748-2.133L47.843,14l0.651-4.986L44.909,5.348l5.15-.949L52.591,0"/>
  <path id="Shape_2_copy_3" data-name="Shape 2 copy 3" class="cls-1" d="M73.864,0L76.4,4.4l5.15,0.949L77.961,9.014,78.611,14l-4.748-2.133L69.116,14l0.651-4.986L66.182,5.348l5.15-.949L73.864,0"/>
  <path id="Shape_2_copy_4" data-name="Shape 2 copy 4" class="cls-1" d="M96.318,0L98.85,4.4,104,5.348l-3.585,3.667L101.066,14l-4.748-2.133L91.57,14l0.651-4.986L88.636,5.348l5.15-.949L96.318,0"/>
</svg>
